<svg xmlns="http://www.w3.org/2000/svg" xmlns:xlink="http://www.w3.org/1999/xlink" width="256" zoomAndPan="magnify" viewBox="0 0 192 191.999996" height="256" preserveAspectRatio="xMidYMid meet" version="1.0"><defs><clipPath id="5151aeb7fd"><path d="M 86 16.242188 L 91 16.242188 L 91 20 L 86 20 Z M 86 16.242188 " clip-rule="nonzero"/></clipPath><clipPath id="e6bb4d0172"><path d="M 16.820312 67 L 22 67 L 22 73 L 16.820312 73 Z M 16.820312 67 " clip-rule="nonzero"/></clipPath><clipPath id="d3aaa306dc"><path d="M 20 17 L 175 17 L 175 175.992188 L 20 175.992188 Z M 20 17 " clip-rule="nonzero"/></clipPath><clipPath id="0261c6e96f"><path d="M 57.601562 57.808594 L 134 57.808594 L 134 134.308594 L 57.601562 134.308594 Z M 57.601562 57.808594 " clip-rule="nonzero"/></clipPath><clipPath id="6f222835fd"><path d="M 133.773438 117.074219 C 133.738281 117.851562 133.523438 118.613281 133.132812 119.308594 L 125.929688 131.859375 C 125.058594 133.378906 123.457031 134.308594 121.71875 134.308594 L 81.742188 134.308594 C 80.007812 134.308594 78.402344 133.378906 77.535156 131.871094 L 58.359375 98.511719 C 57.921875 97.746094 57.707031 96.90625 57.707031 96.058594 C 57.707031 95.210938 57.871094 94.328125 58.382812 93.464844 L 77.546875 60.246094 C 78.414062 58.742188 80.019531 57.808594 81.742188 57.808594 L 121.71875 57.808594 C 123.457031 57.808594 125.058594 58.742188 125.929688 60.246094 C 125.929688 60.246094 132.859375 71.664062 133.359375 72.476562 C 133.855469 73.289062 133.773438 74.316406 133.773438 75.152344 C 133.773438 75.871094 133.570312 76.851562 133.382812 77.628906 C 133.191406 78.40625 127.390625 102.046875 127.390625 102.046875 L 114.730469 74.972656 L 88.78125 74.972656 L 76.632812 96.058594 L 88.78125 117.144531 L 114.71875 117.144531 Z M 133.773438 117.074219 " clip-rule="nonzero"/></clipPath><linearGradient x1="0.217098" gradientTransform="matrix(76.073049, 0, 0, 76.499998, 57.706117, 57.809449)" y1="1.125354" x2="0.900427" gradientUnits="userSpaceOnUse" y2="-0.0580867" id="f9dc2b6c06"><stop stop-opacity="1" stop-color="rgb(31.799316%, 82.699585%, 85.099792%)" offset="0"/><stop stop-opacity="1" stop-color="rgb(31.799316%, 82.699585%, 85.099792%)" offset="0.25"/><stop stop-opacity="1" stop-color="rgb(31.799316%, 82.699585%, 85.099792%)" offset="0.366287"/><stop stop-opacity="1" stop-color="rgb(31.799316%, 82.699585%, 85.099792%)" offset="0.375"/><stop stop-opacity="1" stop-color="rgb(31.799316%, 82.699585%, 85.099792%)" offset="0.4375"/><stop stop-opacity="1" stop-color="rgb(31.799316%, 82.699585%, 85.099792%)" offset="0.453125"/><stop stop-opacity="1" stop-color="rgb(31.97937%, 82.766724%, 84.9823%)" offset="0.460937"/><stop stop-opacity="1" stop-color="rgb(32.531738%, 82.971191%, 84.623718%)" offset="0.464844"/><stop stop-opacity="1" stop-color="rgb(32.902527%, 83.108521%, 84.384155%)" offset="0.46875"/><stop stop-opacity="1" stop-color="rgb(33.273315%, 83.24585%, 84.143066%)" offset="0.472656"/><stop stop-opacity="1" stop-color="rgb(33.64563%, 83.384705%, 83.903503%)" offset="0.476562"/><stop stop-opacity="1" stop-color="rgb(34.016418%, 83.522034%, 83.662415%)" offset="0.480469"/><stop stop-opacity="1" stop-color="rgb(34.387207%, 83.659363%, 83.422852%)" offset="0.484375"/><stop stop-opacity="1" stop-color="rgb(34.757996%, 83.796692%, 83.181763%)" offset="0.488281"/><stop stop-opacity="1" stop-color="rgb(35.128784%, 83.935547%, 82.9422%)" offset="0.492188"/><stop stop-opacity="1" stop-color="rgb(35.499573%, 84.072876%, 82.701111%)" offset="0.496094"/><stop stop-opacity="1" stop-color="rgb(35.870361%, 84.210205%, 82.461548%)" offset="0.5"/><stop stop-opacity="1" stop-color="rgb(36.24115%, 84.347534%, 82.220459%)" offset="0.503906"/><stop stop-opacity="1" stop-color="rgb(36.611938%, 84.486389%, 81.980896%)" offset="0.507812"/><stop stop-opacity="1" stop-color="rgb(36.982727%, 84.623718%, 81.739807%)" offset="0.511719"/><stop stop-opacity="1" stop-color="rgb(37.353516%, 84.761047%, 81.498718%)" offset="0.515625"/><stop stop-opacity="1" stop-color="rgb(37.724304%, 84.898376%, 81.257629%)" offset="0.519531"/><stop stop-opacity="1" stop-color="rgb(38.095093%, 85.037231%, 81.018066%)" offset="0.523438"/><stop stop-opacity="1" stop-color="rgb(38.465881%, 85.174561%, 80.776978%)" offset="0.527344"/><stop stop-opacity="1" stop-color="rgb(38.83667%, 85.31189%, 80.537415%)" offset="0.53125"/><stop stop-opacity="1" stop-color="rgb(39.207458%, 85.449219%, 80.296326%)" offset="0.535156"/><stop stop-opacity="1" stop-color="rgb(39.579773%, 85.588074%, 80.056763%)" offset="0.539062"/><stop stop-opacity="1" stop-color="rgb(39.950562%, 85.725403%, 79.815674%)" offset="0.542969"/><stop stop-opacity="1" stop-color="rgb(40.32135%, 85.862732%, 79.576111%)" offset="0.546875"/><stop stop-opacity="1" stop-color="rgb(40.692139%, 86.000061%, 79.335022%)" offset="0.550781"/><stop stop-opacity="1" stop-color="rgb(41.062927%, 86.138916%, 79.095459%)" offset="0.554688"/><stop stop-opacity="1" stop-color="rgb(41.433716%, 86.276245%, 78.85437%)" offset="0.558594"/><stop stop-opacity="1" stop-color="rgb(41.804504%, 86.413574%, 78.614807%)" offset="0.5625"/><stop stop-opacity="1" stop-color="rgb(42.175293%, 86.550903%, 78.373718%)" offset="0.566406"/><stop stop-opacity="1" stop-color="rgb(42.546082%, 86.689758%, 78.134155%)" offset="0.570312"/><stop stop-opacity="1" stop-color="rgb(42.91687%, 86.827087%, 77.893066%)" offset="0.574219"/><stop stop-opacity="1" stop-color="rgb(43.287659%, 86.964417%, 77.653503%)" offset="0.578125"/><stop stop-opacity="1" stop-color="rgb(43.658447%, 87.101746%, 77.412415%)" offset="0.582031"/><stop stop-opacity="1" stop-color="rgb(44.029236%, 87.239075%, 77.172852%)" offset="0.585937"/><stop stop-opacity="1" stop-color="rgb(44.400024%, 87.376404%, 76.931763%)" offset="0.589844"/><stop stop-opacity="1" stop-color="rgb(44.772339%, 87.515259%, 76.6922%)" offset="0.59375"/><stop stop-opacity="1" stop-color="rgb(45.143127%, 87.652588%, 76.451111%)" offset="0.597656"/><stop stop-opacity="1" stop-color="rgb(45.513916%, 87.789917%, 76.211548%)" offset="0.601562"/><stop stop-opacity="1" stop-color="rgb(45.884705%, 87.927246%, 75.970459%)" offset="0.605469"/><stop stop-opacity="1" stop-color="rgb(46.255493%, 88.066101%, 75.730896%)" offset="0.609375"/><stop stop-opacity="1" stop-color="rgb(46.626282%, 88.20343%, 75.489807%)" offset="0.613281"/><stop stop-opacity="1" stop-color="rgb(46.99707%, 88.340759%, 75.250244%)" offset="0.617187"/><stop stop-opacity="1" stop-color="rgb(47.367859%, 88.478088%, 75.009155%)" offset="0.621094"/><stop stop-opacity="1" stop-color="rgb(47.738647%, 88.616943%, 74.769592%)" offset="0.625"/><stop stop-opacity="1" stop-color="rgb(48.109436%, 88.754272%, 74.528503%)" offset="0.628906"/><stop stop-opacity="1" stop-color="rgb(48.480225%, 88.891602%, 74.28894%)" offset="0.632812"/><stop stop-opacity="1" stop-color="rgb(48.851013%, 89.028931%, 74.047852%)" offset="0.636719"/><stop stop-opacity="1" stop-color="rgb(49.221802%, 89.167786%, 73.808289%)" offset="0.640625"/><stop stop-opacity="1" stop-color="rgb(49.59259%, 89.305115%, 73.5672%)" offset="0.644531"/><stop stop-opacity="1" stop-color="rgb(49.963379%, 89.442444%, 73.327637%)" offset="0.648437"/><stop stop-opacity="1" stop-color="rgb(50.334167%, 89.579773%, 73.086548%)" offset="0.652344"/><stop stop-opacity="1" stop-color="rgb(50.706482%, 89.718628%, 72.846985%)" offset="0.65625"/><stop stop-opacity="1" stop-color="rgb(51.077271%, 89.855957%, 72.605896%)" offset="0.660156"/><stop stop-opacity="1" stop-color="rgb(51.448059%, 89.993286%, 72.366333%)" offset="0.664062"/><stop stop-opacity="1" stop-color="rgb(51.818848%, 90.130615%, 72.125244%)" offset="0.667969"/><stop stop-opacity="1" stop-color="rgb(52.189636%, 90.26947%, 71.885681%)" offset="0.671875"/><stop stop-opacity="1" stop-color="rgb(52.560425%, 90.406799%, 71.644592%)" offset="0.675781"/><stop stop-opacity="1" stop-color="rgb(52.931213%, 90.544128%, 71.405029%)" offset="0.679687"/><stop stop-opacity="1" stop-color="rgb(53.302002%, 90.681458%, 71.16394%)" offset="0.683594"/><stop stop-opacity="1" stop-color="rgb(53.672791%, 90.820312%, 70.922852%)" offset="0.6875"/><stop stop-opacity="1" stop-color="rgb(54.043579%, 90.957642%, 70.681763%)" offset="0.691406"/><stop stop-opacity="1" stop-color="rgb(54.414368%, 91.094971%, 70.4422%)" offset="0.695312"/><stop stop-opacity="1" stop-color="rgb(54.785156%, 91.2323%, 70.201111%)" offset="0.699219"/><stop stop-opacity="1" stop-color="rgb(55.155945%, 91.371155%, 69.961548%)" offset="0.703125"/><stop stop-opacity="1" stop-color="rgb(55.526733%, 91.508484%, 69.720459%)" offset="0.707031"/><stop stop-opacity="1" stop-color="rgb(55.897522%, 91.645813%, 69.480896%)" offset="0.710937"/><stop stop-opacity="1" stop-color="rgb(56.268311%, 91.783142%, 69.239807%)" offset="0.714844"/><stop stop-opacity="1" stop-color="rgb(56.640625%, 91.921997%, 69.000244%)" offset="0.71875"/><stop stop-opacity="1" stop-color="rgb(57.011414%, 92.059326%, 68.759155%)" offset="0.722656"/><stop stop-opacity="1" stop-color="rgb(57.382202%, 92.196655%, 68.519592%)" offset="0.726562"/><stop stop-opacity="1" stop-color="rgb(57.752991%, 92.333984%, 68.278503%)" offset="0.730469"/><stop stop-opacity="1" stop-color="rgb(58.123779%, 92.471313%, 68.03894%)" offset="0.734375"/><stop stop-opacity="1" stop-color="rgb(58.494568%, 92.608643%, 67.797852%)" offset="0.738281"/><stop stop-opacity="1" stop-color="rgb(58.865356%, 92.747498%, 67.558289%)" offset="0.742187"/><stop stop-opacity="1" stop-color="rgb(59.236145%, 92.884827%, 67.3172%)" offset="0.746094"/><stop stop-opacity="1" stop-color="rgb(59.606934%, 93.022156%, 67.077637%)" offset="0.75"/><stop stop-opacity="1" stop-color="rgb(59.977722%, 93.159485%, 66.836548%)" offset="0.753906"/><stop stop-opacity="1" stop-color="rgb(60.348511%, 93.29834%, 66.596985%)" offset="0.757812"/><stop stop-opacity="1" stop-color="rgb(60.719299%, 93.435669%, 66.355896%)" offset="0.761719"/><stop stop-opacity="1" stop-color="rgb(61.090088%, 93.572998%, 66.116333%)" offset="0.765625"/><stop stop-opacity="1" stop-color="rgb(61.460876%, 93.710327%, 65.875244%)" offset="0.769531"/><stop stop-opacity="1" stop-color="rgb(61.833191%, 93.849182%, 65.635681%)" offset="0.773437"/><stop stop-opacity="1" stop-color="rgb(62.203979%, 93.986511%, 65.394592%)" offset="0.777344"/><stop stop-opacity="1" stop-color="rgb(62.574768%, 94.12384%, 65.155029%)" offset="0.78125"/><stop stop-opacity="1" stop-color="rgb(62.945557%, 94.261169%, 64.91394%)" offset="0.785156"/><stop stop-opacity="1" stop-color="rgb(63.316345%, 94.400024%, 64.674377%)" offset="0.789062"/><stop stop-opacity="1" stop-color="rgb(63.687134%, 94.537354%, 64.433289%)" offset="0.792969"/><stop stop-opacity="1" stop-color="rgb(64.057922%, 94.674683%, 64.193726%)" offset="0.796875"/><stop stop-opacity="1" stop-color="rgb(64.428711%, 94.812012%, 63.952637%)" offset="0.800781"/><stop stop-opacity="1" stop-color="rgb(64.7995%, 94.950867%, 63.713074%)" offset="0.804687"/><stop stop-opacity="1" stop-color="rgb(65.170288%, 95.088196%, 63.471985%)" offset="0.808594"/><stop stop-opacity="1" stop-color="rgb(65.541077%, 95.225525%, 63.232422%)" offset="0.8125"/><stop stop-opacity="1" stop-color="rgb(65.911865%, 95.362854%, 62.991333%)" offset="0.816406"/><stop stop-opacity="1" stop-color="rgb(66.282654%, 95.501709%, 62.75177%)" offset="0.820312"/><stop stop-opacity="1" stop-color="rgb(66.653442%, 95.639038%, 62.510681%)" offset="0.824219"/><stop stop-opacity="1" stop-color="rgb(67.024231%, 95.776367%, 62.271118%)" offset="0.828125"/><stop stop-opacity="1" stop-color="rgb(67.39502%, 95.913696%, 62.030029%)" offset="0.832031"/><stop stop-opacity="1" stop-color="rgb(67.767334%, 96.052551%, 61.790466%)" offset="0.835938"/><stop stop-opacity="1" stop-color="rgb(68.138123%, 96.18988%, 61.549377%)" offset="0.839844"/><stop stop-opacity="1" stop-color="rgb(68.508911%, 96.327209%, 61.309814%)" offset="0.84375"/><stop stop-opacity="1" stop-color="rgb(68.8797%, 96.464539%, 61.068726%)" offset="0.847656"/><stop stop-opacity="1" stop-color="rgb(69.250488%, 96.603394%, 60.829163%)" offset="0.851562"/><stop stop-opacity="1" stop-color="rgb(69.621277%, 96.740723%, 60.588074%)" offset="0.855469"/><stop stop-opacity="1" stop-color="rgb(69.992065%, 96.878052%, 60.346985%)" offset="0.859375"/><stop stop-opacity="1" stop-color="rgb(70.362854%, 97.015381%, 60.105896%)" offset="0.863281"/><stop stop-opacity="1" stop-color="rgb(70.733643%, 97.15271%, 59.866333%)" offset="0.867187"/><stop stop-opacity="1" stop-color="rgb(71.104431%, 97.290039%, 59.625244%)" offset="0.871094"/><stop stop-opacity="1" stop-color="rgb(71.47522%, 97.428894%, 59.385681%)" offset="0.875"/><stop stop-opacity="1" stop-color="rgb(71.846008%, 97.566223%, 59.144592%)" offset="0.878906"/><stop stop-opacity="1" stop-color="rgb(72.216797%, 97.703552%, 58.905029%)" offset="0.882812"/><stop stop-opacity="1" stop-color="rgb(72.587585%, 97.840881%, 58.66394%)" offset="0.886719"/><stop stop-opacity="1" stop-color="rgb(72.958374%, 97.979736%, 58.424377%)" offset="0.890625"/><stop stop-opacity="1" stop-color="rgb(73.329163%, 98.117065%, 58.183289%)" offset="0.894531"/><stop stop-opacity="1" stop-color="rgb(73.701477%, 98.254395%, 57.943726%)" offset="0.898438"/><stop stop-opacity="1" stop-color="rgb(74.072266%, 98.391724%, 57.702637%)" offset="0.902344"/><stop stop-opacity="1" stop-color="rgb(74.443054%, 98.530579%, 57.463074%)" offset="0.90625"/><stop stop-opacity="1" stop-color="rgb(74.813843%, 98.667908%, 57.221985%)" offset="0.910156"/><stop stop-opacity="1" stop-color="rgb(75.184631%, 98.805237%, 56.982422%)" offset="0.914062"/><stop stop-opacity="1" stop-color="rgb(75.55542%, 98.942566%, 56.741333%)" offset="0.917969"/><stop stop-opacity="1" stop-color="rgb(75.926208%, 99.081421%, 56.50177%)" offset="0.921875"/><stop stop-opacity="1" stop-color="rgb(76.296997%, 99.21875%, 56.260681%)" offset="0.925781"/><stop stop-opacity="1" stop-color="rgb(76.667786%, 99.356079%, 56.021118%)" offset="0.929687"/><stop stop-opacity="1" stop-color="rgb(77.038574%, 99.493408%, 55.780029%)" offset="0.933594"/><stop stop-opacity="1" stop-color="rgb(77.409363%, 99.632263%, 55.540466%)" offset="0.9375"/><stop stop-opacity="1" stop-color="rgb(77.780151%, 99.769592%, 55.299377%)" offset="0.941406"/><stop stop-opacity="1" stop-color="rgb(78.15094%, 99.906921%, 55.059814%)" offset="0.945312"/><stop stop-opacity="1" stop-color="rgb(78.274536%, 99.952698%, 54.978943%)" offset="0.953125"/><stop stop-opacity="1" stop-color="rgb(78.399658%, 100%, 54.899597%)" offset="0.96875"/><stop stop-opacity="1" stop-color="rgb(78.399658%, 100%, 54.899597%)" offset="1"/></linearGradient><clipPath id="68b2a04a7a"><path d="M 114 96 L 134 96 L 134 120 L 114 120 Z M 114 96 " clip-rule="nonzero"/></clipPath><clipPath id="8d8bb4a29e"><path d="M 124.527344 96.046875 L 133.320312 114.800781 C 134 116.25 133.929688 117.933594 133.132812 119.320312 L 114.730469 117.15625 Z M 124.527344 96.046875 " clip-rule="nonzero"/></clipPath><linearGradient x1="0.261003" gradientTransform="matrix(19.053999, 0, 0, 23.272736, 114.730255, 96.047493)" y1="1.183032" x2="1.064479" gradientUnits="userSpaceOnUse" y2="0.037283" id="1219f02994"><stop stop-opacity="1" stop-color="rgb(31.799316%, 82.699585%, 85.099792%)" offset="0"/><stop stop-opacity="1" stop-color="rgb(31.799316%, 82.699585%, 85.099792%)" offset="0.25"/><stop stop-opacity="1" stop-color="rgb(31.799316%, 82.699585%, 85.099792%)" offset="0.375"/><stop stop-opacity="1" stop-color="rgb(31.799316%, 82.699585%, 85.099792%)" offset="0.40625"/><stop stop-opacity="1" stop-color="rgb(31.806946%, 82.644653%, 85.047913%)" offset="0.414062"/><stop stop-opacity="1" stop-color="rgb(31.845093%, 82.362366%, 84.78241%)" offset="0.417969"/><stop stop-opacity="1" stop-color="rgb(31.87561%, 82.133484%, 84.567261%)" offset="0.421875"/><stop stop-opacity="1" stop-color="rgb(31.906128%, 81.904602%, 84.352112%)" offset="0.425781"/><stop stop-opacity="1" stop-color="rgb(31.938171%, 81.677246%, 84.136963%)" offset="0.429688"/><stop stop-opacity="1" stop-color="rgb(31.968689%, 81.448364%, 83.920288%)" offset="0.433594"/><stop stop-opacity="1" stop-color="rgb(31.999207%, 81.219482%, 83.705139%)" offset="0.4375"/><stop stop-opacity="1" stop-color="rgb(32.029724%, 80.990601%, 83.48999%)" offset="0.441406"/><stop stop-opacity="1" stop-color="rgb(32.061768%, 80.763245%, 83.274841%)" offset="0.445312"/><stop stop-opacity="1" stop-color="rgb(32.092285%, 80.534363%, 83.059692%)" offset="0.449219"/><stop stop-opacity="1" stop-color="rgb(32.124329%, 80.305481%, 82.844543%)" offset="0.453125"/><stop stop-opacity="1" stop-color="rgb(32.154846%, 80.076599%, 82.629395%)" offset="0.457031"/><stop stop-opacity="1" stop-color="rgb(32.185364%, 79.847717%, 82.414246%)" offset="0.460938"/><stop stop-opacity="1" stop-color="rgb(32.215881%, 79.618835%, 82.199097%)" offset="0.464844"/><stop stop-opacity="1" stop-color="rgb(32.247925%, 79.391479%, 81.983948%)" offset="0.46875"/><stop stop-opacity="1" stop-color="rgb(32.278442%, 79.162598%, 81.768799%)" offset="0.472656"/><stop stop-opacity="1" stop-color="rgb(32.310486%, 78.933716%, 81.55365%)" offset="0.476562"/><stop stop-opacity="1" stop-color="rgb(32.341003%, 78.704834%, 81.336975%)" offset="0.480469"/><stop stop-opacity="1" stop-color="rgb(32.371521%, 78.477478%, 81.121826%)" offset="0.484375"/><stop stop-opacity="1" stop-color="rgb(32.402039%, 78.248596%, 80.906677%)" offset="0.488281"/><stop stop-opacity="1" stop-color="rgb(32.434082%, 78.019714%, 80.691528%)" offset="0.492188"/><stop stop-opacity="1" stop-color="rgb(32.4646%, 77.790833%, 80.476379%)" offset="0.496094"/><stop stop-opacity="1" stop-color="rgb(32.496643%, 77.563477%, 80.26123%)" offset="0.5"/><stop stop-opacity="1" stop-color="rgb(32.527161%, 77.334595%, 80.046082%)" offset="0.503906"/><stop stop-opacity="1" stop-color="rgb(32.557678%, 77.105713%, 79.830933%)" offset="0.507812"/><stop stop-opacity="1" stop-color="rgb(32.588196%, 76.876831%, 79.615784%)" offset="0.511719"/><stop stop-opacity="1" stop-color="rgb(32.620239%, 76.647949%, 79.400635%)" offset="0.515625"/><stop stop-opacity="1" stop-color="rgb(32.650757%, 76.419067%, 79.185486%)" offset="0.519531"/><stop stop-opacity="1" stop-color="rgb(32.6828%, 76.191711%, 78.970337%)" offset="0.523437"/><stop stop-opacity="1" stop-color="rgb(32.713318%, 75.96283%, 78.755188%)" offset="0.527344"/><stop stop-opacity="1" stop-color="rgb(32.743835%, 75.733948%, 78.540039%)" offset="0.53125"/><stop stop-opacity="1" stop-color="rgb(32.774353%, 75.505066%, 78.323364%)" offset="0.535156"/><stop stop-opacity="1" stop-color="rgb(32.806396%, 75.27771%, 78.108215%)" offset="0.539062"/><stop stop-opacity="1" stop-color="rgb(32.836914%, 75.048828%, 77.893066%)" offset="0.542969"/><stop stop-opacity="1" stop-color="rgb(32.867432%, 74.819946%, 77.677917%)" offset="0.546875"/><stop stop-opacity="1" stop-color="rgb(32.897949%, 74.591064%, 77.462769%)" offset="0.550781"/><stop stop-opacity="1" stop-color="rgb(32.929993%, 74.363708%, 77.24762%)" offset="0.554688"/><stop stop-opacity="1" stop-color="rgb(32.96051%, 74.134827%, 77.032471%)" offset="0.558594"/><stop stop-opacity="1" stop-color="rgb(32.992554%, 73.905945%, 76.817322%)" offset="0.5625"/><stop stop-opacity="1" stop-color="rgb(33.023071%, 73.677063%, 76.602173%)" offset="0.566406"/><stop stop-opacity="1" stop-color="rgb(33.053589%, 73.448181%, 76.387024%)" offset="0.570312"/><stop stop-opacity="1" stop-color="rgb(33.084106%, 73.219299%, 76.171875%)" offset="0.574219"/><stop stop-opacity="1" stop-color="rgb(33.11615%, 72.991943%, 75.956726%)" offset="0.578125"/><stop stop-opacity="1" stop-color="rgb(33.146667%, 72.763062%, 75.740051%)" offset="0.582031"/><stop stop-opacity="1" stop-color="rgb(33.178711%, 72.53418%, 75.524902%)" offset="0.585938"/><stop stop-opacity="1" stop-color="rgb(33.209229%, 72.305298%, 75.309753%)" offset="0.589844"/><stop stop-opacity="1" stop-color="rgb(33.239746%, 72.077942%, 75.094604%)" offset="0.59375"/><stop stop-opacity="1" stop-color="rgb(33.270264%, 71.84906%, 74.879456%)" offset="0.597656"/><stop stop-opacity="1" stop-color="rgb(33.302307%, 71.620178%, 74.664307%)" offset="0.601562"/><stop stop-opacity="1" stop-color="rgb(33.332825%, 71.391296%, 74.449158%)" offset="0.605469"/><stop stop-opacity="1" stop-color="rgb(33.364868%, 71.16394%, 74.234009%)" offset="0.609375"/><stop stop-opacity="1" stop-color="rgb(33.395386%, 70.935059%, 74.01886%)" offset="0.613281"/><stop stop-opacity="1" stop-color="rgb(33.425903%, 70.706177%, 73.803711%)" offset="0.617188"/><stop stop-opacity="1" stop-color="rgb(33.456421%, 70.477295%, 73.588562%)" offset="0.621094"/><stop stop-opacity="1" stop-color="rgb(33.488464%, 70.248413%, 73.373413%)" offset="0.625"/><stop stop-opacity="1" stop-color="rgb(33.518982%, 70.019531%, 73.158264%)" offset="0.628906"/><stop stop-opacity="1" stop-color="rgb(33.5495%, 69.792175%, 72.943115%)" offset="0.632813"/><stop stop-opacity="1" stop-color="rgb(33.580017%, 69.563293%, 72.72644%)" offset="0.636719"/><stop stop-opacity="1" stop-color="rgb(33.612061%, 69.334412%, 72.511292%)" offset="0.640625"/><stop stop-opacity="1" stop-color="rgb(33.642578%, 69.10553%, 72.296143%)" offset="0.644531"/><stop stop-opacity="1" stop-color="rgb(33.674622%, 68.878174%, 72.080994%)" offset="0.648438"/><stop stop-opacity="1" stop-color="rgb(33.705139%, 68.649292%, 71.865845%)" offset="0.652344"/><stop stop-opacity="1" stop-color="rgb(33.735657%, 68.42041%, 71.650696%)" offset="0.65625"/><stop stop-opacity="1" stop-color="rgb(33.766174%, 68.191528%, 71.435547%)" offset="0.660156"/><stop stop-opacity="1" stop-color="rgb(33.798218%, 67.964172%, 71.220398%)" offset="0.664063"/><stop stop-opacity="1" stop-color="rgb(33.828735%, 67.735291%, 71.005249%)" offset="0.667969"/><stop stop-opacity="1" stop-color="rgb(33.860779%, 67.506409%, 70.7901%)" offset="0.671875"/><stop stop-opacity="1" stop-color="rgb(33.891296%, 67.277527%, 70.574951%)" offset="0.675781"/><stop stop-opacity="1" stop-color="rgb(33.921814%, 67.048645%, 70.359802%)" offset="0.679688"/><stop stop-opacity="1" stop-color="rgb(33.952332%, 66.819763%, 70.143127%)" offset="0.683594"/><stop stop-opacity="1" stop-color="rgb(33.984375%, 66.592407%, 69.927979%)" offset="0.6875"/><stop stop-opacity="1" stop-color="rgb(34.014893%, 66.363525%, 69.71283%)" offset="0.691406"/><stop stop-opacity="1" stop-color="rgb(34.046936%, 66.134644%, 69.497681%)" offset="0.695312"/><stop stop-opacity="1" stop-color="rgb(34.077454%, 65.905762%, 69.282532%)" offset="0.699219"/><stop stop-opacity="1" stop-color="rgb(34.107971%, 65.678406%, 69.067383%)" offset="0.703125"/><stop stop-opacity="1" stop-color="rgb(34.138489%, 65.449524%, 68.852234%)" offset="0.707031"/><stop stop-opacity="1" stop-color="rgb(34.170532%, 65.220642%, 68.637085%)" offset="0.710938"/><stop stop-opacity="1" stop-color="rgb(34.20105%, 64.99176%, 68.421936%)" offset="0.714844"/><stop stop-opacity="1" stop-color="rgb(34.233093%, 64.764404%, 68.206787%)" offset="0.71875"/><stop stop-opacity="1" stop-color="rgb(34.263611%, 64.535522%, 67.991638%)" offset="0.722656"/><stop stop-opacity="1" stop-color="rgb(34.294128%, 64.306641%, 67.776489%)" offset="0.726562"/><stop stop-opacity="1" stop-color="rgb(34.324646%, 64.077759%, 67.56134%)" offset="0.730469"/><stop stop-opacity="1" stop-color="rgb(34.356689%, 63.848877%, 67.346191%)" offset="0.734375"/><stop stop-opacity="1" stop-color="rgb(34.387207%, 63.619995%, 67.129517%)" offset="0.738281"/><stop stop-opacity="1" stop-color="rgb(34.417725%, 63.392639%, 66.914368%)" offset="0.742188"/><stop stop-opacity="1" stop-color="rgb(34.448242%, 63.163757%, 66.699219%)" offset="0.746094"/><stop stop-opacity="1" stop-color="rgb(34.480286%, 62.934875%, 66.48407%)" offset="0.75"/><stop stop-opacity="1" stop-color="rgb(34.510803%, 62.705994%, 66.268921%)" offset="0.753906"/><stop stop-opacity="1" stop-color="rgb(34.542847%, 62.478638%, 66.053772%)" offset="0.757812"/><stop stop-opacity="1" stop-color="rgb(34.573364%, 62.249756%, 65.838623%)" offset="0.761719"/><stop stop-opacity="1" stop-color="rgb(34.603882%, 62.020874%, 65.623474%)" offset="0.765625"/><stop stop-opacity="1" stop-color="rgb(34.634399%, 61.791992%, 65.408325%)" offset="0.769531"/><stop stop-opacity="1" stop-color="rgb(34.666443%, 61.564636%, 65.193176%)" offset="0.773438"/><stop stop-opacity="1" stop-color="rgb(34.69696%, 61.335754%, 64.978027%)" offset="0.777344"/><stop stop-opacity="1" stop-color="rgb(34.729004%, 61.106873%, 64.762878%)" offset="0.78125"/><stop stop-opacity="1" stop-color="rgb(34.759521%, 60.877991%, 64.546204%)" offset="0.785156"/><stop stop-opacity="1" stop-color="rgb(34.790039%, 60.649109%, 64.331055%)" offset="0.789063"/><stop stop-opacity="1" stop-color="rgb(34.820557%, 60.420227%, 64.115906%)" offset="0.792969"/><stop stop-opacity="1" stop-color="rgb(34.8526%, 60.192871%, 63.900757%)" offset="0.796875"/><stop stop-opacity="1" stop-color="rgb(34.883118%, 59.963989%, 63.685608%)" offset="0.800781"/><stop stop-opacity="1" stop-color="rgb(34.915161%, 59.735107%, 63.470459%)" offset="0.804688"/><stop stop-opacity="1" stop-color="rgb(34.945679%, 59.506226%, 63.25531%)" offset="0.808594"/><stop stop-opacity="1" stop-color="rgb(34.976196%, 59.27887%, 63.040161%)" offset="0.8125"/><stop stop-opacity="1" stop-color="rgb(35.006714%, 59.049988%, 62.825012%)" offset="0.816406"/><stop stop-opacity="1" stop-color="rgb(35.038757%, 58.821106%, 62.609863%)" offset="0.820312"/><stop stop-opacity="1" stop-color="rgb(35.069275%, 58.592224%, 62.394714%)" offset="0.824219"/><stop stop-opacity="1" stop-color="rgb(35.099792%, 58.364868%, 62.179565%)" offset="0.828125"/><stop stop-opacity="1" stop-color="rgb(35.13031%, 58.135986%, 61.964417%)" offset="0.832031"/><stop stop-opacity="1" stop-color="rgb(35.162354%, 57.907104%, 61.749268%)" offset="0.835938"/><stop stop-opacity="1" stop-color="rgb(35.192871%, 57.678223%, 61.532593%)" offset="0.839844"/><stop stop-opacity="1" stop-color="rgb(35.224915%, 57.449341%, 61.317444%)" offset="0.84375"/><stop stop-opacity="1" stop-color="rgb(35.255432%, 57.220459%, 61.102295%)" offset="0.847656"/><stop stop-opacity="1" stop-color="rgb(35.28595%, 56.993103%, 60.887146%)" offset="0.851562"/><stop stop-opacity="1" stop-color="rgb(35.292053%, 56.945801%, 60.842896%)" offset="0.859375"/><stop stop-opacity="1" stop-color="rgb(35.299683%, 56.898499%, 60.798645%)" offset="0.875"/><stop stop-opacity="1" stop-color="rgb(35.299683%, 56.898499%, 60.798645%)" offset="1"/></linearGradient></defs><path fill="#000000" d="M 78.335938 18.433594 C 78.3125 18.230469 78.28125 18.019531 78.222656 17.78125 C 77.910156 18.132812 78.019531 18.316406 78.335938 18.433594 Z M 78.335938 18.433594 " fill-opacity="1" fill-rule="nonzero"/><path fill="#000000" d="M 105.65625 17.707031 C 106.320312 17.710938 106.988281 17.714844 106.988281 17.714844 C 107.113281 17.742188 107.195312 17.753906 107.246094 17.757812 C 107.265625 17.757812 107.285156 17.753906 107.304688 17.753906 C 107.308594 17.664062 104.742188 16.917969 104.667969 17.703125 C 104.691406 17.703125 104.714844 17.703125 104.738281 17.699219 C 104.988281 17.703125 105.320312 17.703125 105.65625 17.707031 Z M 105.65625 17.707031 " fill-opacity="1" fill-rule="nonzero"/><path fill="#000000" d="M 92.839844 18.238281 C 92.535156 18.113281 92.199219 18.011719 91.847656 17.949219 C 92.128906 18.042969 92.46875 18.140625 92.839844 18.238281 Z M 92.839844 18.238281 " fill-opacity="1" fill-rule="nonzero"/><path fill="#000000" d="M 100.238281 19.066406 C 99.71875 18.917969 99.1875 18.804688 98.636719 18.722656 C 98.164062 18.65625 97.683594 18.617188 97.191406 18.613281 C 96.699219 18.628906 96.199219 18.679688 95.691406 18.765625 C 95.691406 18.765625 95.703125 18.78125 95.714844 18.800781 C 96.414062 18.902344 97.148438 18.984375 97.886719 19.027344 C 98.671875 19.101562 99.464844 19.101562 100.238281 19.066406 Z M 100.238281 19.066406 " fill-opacity="1" fill-rule="nonzero"/><g clip-path="url(#5151aeb7fd)"><path fill="#000000" d="M 89.523438 18.386719 C 90.117188 18.253906 90.515625 18.167969 90.515625 18.167969 C 90.515625 18.167969 90.164062 17.683594 89.8125 17.199219 C 89.457031 16.71875 89.101562 16.242188 89.101562 16.242188 C 86.136719 16.285156 86.5 17.09375 86.8125 17.929688 C 86.964844 18.347656 87.097656 18.769531 86.8125 19.113281 C 86.996094 19.0625 87.179688 19.015625 87.363281 18.964844 C 88.148438 18.753906 88.933594 18.546875 89.523438 18.386719 Z M 89.523438 18.386719 " fill-opacity="1" fill-rule="nonzero"/></g><path fill="#000000" d="M 86.808594 19.121094 C 86.808594 19.117188 86.8125 19.117188 86.8125 19.113281 C 86.222656 19.273438 85.660156 19.433594 85.222656 19.585938 C 84.640625 19.773438 84.253906 19.898438 84.253906 19.898438 C 85.03125 19.816406 85.59375 19.707031 86 19.566406 C 86.410156 19.441406 86.664062 19.296875 86.808594 19.121094 Z M 86.808594 19.121094 " fill-opacity="1" fill-rule="nonzero"/><path fill="#000000" d="M 136.566406 167.371094 C 136.394531 167.617188 136.136719 167.894531 135.847656 168.183594 C 136.152344 168.089844 136.449219 167.976562 136.726562 167.808594 Z M 136.566406 167.371094 " fill-opacity="1" fill-rule="nonzero"/><path fill="#000000" d="M 136.160156 166.269531 L 136.566406 167.371094 C 136.921875 166.832031 136.941406 166.417969 136.160156 166.269531 Z M 136.160156 166.269531 " fill-opacity="1" fill-rule="nonzero"/><path fill="#000000" d="M 126.105469 171.292969 C 125.300781 172.121094 124.445312 172.875 124.445312 172.875 C 125.183594 172.730469 126.421875 172.359375 127.257812 171.8125 C 128.097656 171.265625 128.527344 170.554688 127.703125 169.671875 C 127.703125 169.671875 126.90625 170.484375 126.105469 171.292969 Z M 126.105469 171.292969 " fill-opacity="1" fill-rule="nonzero"/><path fill="#000000" d="M 150.859375 143.539062 L 150.132812 143.039062 C 150.179688 143.355469 150.351562 143.578125 150.859375 143.539062 Z M 150.859375 143.539062 " fill-opacity="1" fill-rule="nonzero"/><path fill="#000000" d="M 27.050781 65.625 C 26.992188 65.460938 26.898438 65.289062 26.761719 65.117188 C 26.761719 65.113281 26.875 65.316406 27.050781 65.625 Z M 27.050781 65.625 " fill-opacity="1" fill-rule="nonzero"/><path fill="#000000" d="M 96.632812 173.277344 L 96.542969 173.152344 C 96.535156 173.203125 96.570312 173.242188 96.632812 173.277344 Z M 96.632812 173.277344 " fill-opacity="1" fill-rule="nonzero"/><path fill="#000000" d="M 138.507812 32.949219 C 138.714844 32.742188 138.855469 32.601562 138.855469 32.601562 C 138.683594 32.6875 138.578125 32.8125 138.507812 32.949219 Z M 138.507812 32.949219 " fill-opacity="1" fill-rule="nonzero"/><path fill="#000000" d="M 170.851562 115.375 C 170.804688 115.378906 170.761719 115.378906 170.714844 115.382812 C 170.710938 115.449219 170.710938 115.519531 170.707031 115.589844 C 170.753906 115.519531 170.800781 115.449219 170.851562 115.375 Z M 170.851562 115.375 " fill-opacity="1" fill-rule="nonzero"/><path fill="#000000" d="M 169.886719 122.09375 C 170.210938 120.128906 170.558594 117.75 170.703125 115.703125 C 170.703125 115.664062 170.707031 115.628906 170.707031 115.589844 C 170.015625 116.632812 169.707031 117.5 169.679688 118.464844 C 169.652344 119.496094 169.820312 120.613281 169.886719 122.09375 Z M 169.886719 122.09375 " fill-opacity="1" fill-rule="nonzero"/><path fill="#000000" d="M 163.996094 138.136719 C 164.152344 138.261719 164.328125 138.390625 164.535156 138.515625 C 164.507812 138.046875 164.300781 137.992188 163.996094 138.136719 Z M 163.996094 138.136719 " fill-opacity="1" fill-rule="nonzero"/><path fill="#000000" d="M 159.566406 137.425781 C 159.566406 137.425781 160.109375 136.65625 160.625 135.871094 C 161.125 135.070312 161.621094 134.269531 161.621094 134.269531 C 162.277344 135.183594 161.871094 136.28125 161.386719 137.25 C 160.910156 138.230469 160.445312 139.132812 161.101562 139.824219 C 161.902344 140.066406 163.25 138.488281 163.996094 138.136719 C 162.6875 137.070312 163.074219 136 163.328125 135.132812 C 163.609375 134.160156 163.691406 133.476562 161.023438 133.371094 C 160.90625 133.597656 160.789062 133.835938 160.675781 134.089844 C 160.285156 134.976562 159.9375 136.035156 159.566406 137.425781 Z M 159.566406 137.425781 " fill-opacity="1" fill-rule="nonzero"/><path fill="#000000" d="M 163.746094 125.9375 C 163.613281 127.363281 163.359375 128.464844 163.046875 129.386719 C 162.800781 130.019531 162.535156 130.5625 162.261719 131.085938 C 162.558594 130.917969 162.871094 130.875 163.191406 130.828125 C 164.023438 130.703125 164.96875 130.570312 165.636719 128.035156 C 165.636719 128.035156 165.164062 127.503906 164.695312 126.976562 C 164.222656 126.457031 163.746094 125.9375 163.746094 125.9375 Z M 163.746094 125.9375 " fill-opacity="1" fill-rule="nonzero"/><path fill="#000000" d="M 160.953125 133.367188 C 160.976562 133.367188 161 133.367188 161.023438 133.371094 C 161.320312 132.800781 161.621094 132.285156 161.894531 131.761719 C 162.019531 131.539062 162.140625 131.3125 162.261719 131.082031 C 162.167969 131.132812 162.078125 131.195312 161.992188 131.273438 C 161.605469 131.597656 161.308594 132.21875 160.953125 133.367188 Z M 160.953125 133.367188 " fill-opacity="1" fill-rule="nonzero"/><path fill="#000000" d="M 150.539062 151.371094 C 150.871094 151.011719 151.191406 150.621094 151.488281 150.199219 C 151.488281 150.199219 151.472656 150.195312 151.449219 150.1875 C 150.882812 150.617188 150.308594 151.078125 149.75 151.570312 C 149.144531 152.074219 148.582031 152.632812 148.0625 153.210938 C 148.53125 152.945312 148.988281 152.648438 149.4375 152.316406 C 149.816406 152.027344 150.183594 151.714844 150.539062 151.371094 Z M 150.539062 151.371094 " fill-opacity="1" fill-rule="nonzero"/><path fill="#000000" d="M 153.878906 148.550781 C 154.179688 148.425781 154.488281 148.257812 154.78125 148.050781 C 154.519531 148.183594 154.210938 148.355469 153.878906 148.550781 Z M 153.878906 148.550781 " fill-opacity="1" fill-rule="nonzero"/><path fill="#000000" d="M 152.417969 148.773438 C 151.777344 148.636719 151.484375 148.136719 151.835938 147.089844 C 151.835938 147.089844 152.558594 147.070312 153.28125 147.054688 C 154.011719 147.023438 154.738281 146.992188 154.738281 146.992188 C 154.738281 146.992188 154.730469 146.632812 154.722656 146.09375 C 154.714844 145.5625 154.675781 144.84375 154.621094 144.125 C 154.523438 142.691406 154.390625 141.308594 154.390625 141.308594 C 154.417969 142.320312 154.058594 143.160156 153.566406 143.875 C 153.085938 144.59375 152.390625 145.140625 151.847656 145.671875 C 150.753906 146.738281 150.007812 147.585938 151.480469 149.15625 C 151.480469 149.15625 150.914062 149.273438 150.34375 149.394531 C 149.78125 149.507812 149.21875 149.621094 149.21875 149.621094 C 149.21875 149.621094 149.785156 149.769531 150.347656 149.914062 C 150.832031 150.035156 151.3125 150.15625 151.449219 150.1875 C 152.320312 149.535156 153.160156 148.972656 153.878906 148.550781 C 153.34375 148.773438 152.824219 148.859375 152.417969 148.773438 Z M 152.417969 148.773438 " fill-opacity="1" fill-rule="nonzero"/><path fill="#000000" d="M 145.191406 158.007812 C 144.714844 158.476562 144.242188 158.945312 144.242188 158.945312 C 144.132812 159.015625 144.066406 159.066406 144.03125 159.097656 C 144.015625 159.113281 144.003906 159.128906 143.992188 159.144531 C 144.054688 159.207031 146.394531 157.917969 145.890625 157.308594 C 145.875 157.328125 145.859375 157.34375 145.84375 157.363281 C 145.664062 157.539062 145.425781 157.773438 145.191406 158.007812 Z M 145.191406 158.007812 " fill-opacity="1" fill-rule="nonzero"/><path fill="#000000" d="M 158.777344 141.292969 C 158.28125 141.902344 157.964844 142.378906 157.773438 142.765625 C 157.578125 143.144531 157.5 143.425781 157.519531 143.652344 C 157.519531 143.65625 157.523438 143.660156 157.523438 143.660156 C 157.828125 143.128906 158.109375 142.617188 158.3125 142.199219 C 158.589844 141.65625 158.777344 141.292969 158.777344 141.292969 Z M 158.777344 141.292969 " fill-opacity="1" fill-rule="nonzero"/><path fill="#000000" d="M 158.359375 144.496094 C 157.957031 144.3125 157.5625 144.105469 157.523438 143.660156 C 157.429688 143.824219 157.332031 143.992188 157.234375 144.15625 C 156.828125 144.863281 156.421875 145.566406 156.117188 146.097656 C 155.789062 146.609375 155.570312 146.953125 155.570312 146.953125 C 155.570312 146.953125 156.160156 147.046875 156.75 147.140625 C 157.34375 147.226562 157.933594 147.3125 157.933594 147.3125 C 159.996094 145.183594 159.167969 144.867188 158.359375 144.496094 Z M 158.359375 144.496094 " fill-opacity="1" fill-rule="nonzero"/><path fill="#000000" d="M 17.730469 74.085938 C 17.679688 73.789062 17.660156 73.410156 17.664062 73 C 17.515625 73.28125 17.386719 73.570312 17.308594 73.886719 Z M 17.730469 74.085938 " fill-opacity="1" fill-rule="nonzero"/><path fill="#000000" d="M 18.796875 74.574219 L 17.730469 74.085938 C 17.859375 74.71875 18.136719 75.023438 18.796875 74.574219 Z M 18.796875 74.574219 " fill-opacity="1" fill-rule="nonzero"/><g clip-path="url(#e6bb4d0172)"><path fill="#000000" d="M 21.089844 69.75 C 22.113281 68.964844 22.515625 68.277344 20.949219 67.046875 C 20.949219 67.046875 20.472656 67.886719 19.992188 68.726562 C 19.757812 69.148438 19.519531 69.570312 19.339844 69.886719 C 19.164062 70.203125 19.050781 70.417969 19.050781 70.414062 C 17.585938 69.660156 16.859375 69.277344 18.121094 67.164062 C 17.265625 67.398438 17.132812 69.785156 16.960938 71.050781 L 17.480469 70.292969 C 17.707031 70.980469 17.652344 72.070312 17.664062 73 C 18.464844 71.457031 20.046875 70.519531 21.089844 69.75 Z M 21.089844 69.75 " fill-opacity="1" fill-rule="nonzero"/></g><path fill="#000000" d="M 22.375 66.175781 C 22.375 66.175781 22.367188 65.035156 22.359375 63.898438 C 22.34375 62.742188 22.417969 61.601562 22.417969 61.601562 C 21.996094 62.226562 21.382812 63.363281 21.179688 64.347656 C 20.96875 65.328125 21.167969 66.136719 22.375 66.175781 Z M 22.375 66.175781 " fill-opacity="1" fill-rule="nonzero"/><path fill="#000000" d="M 26.730469 62.851562 C 27.148438 62.214844 27.589844 61.644531 27.574219 60.898438 C 26.527344 61.5625 26.554688 61.144531 26.859375 60.421875 C 27.167969 59.699219 27.75 58.675781 27.746094 58.117188 C 24.101562 60.957031 27.636719 60.445312 26.730469 62.851562 Z M 26.730469 62.851562 " fill-opacity="1" fill-rule="nonzero"/><path fill="#000000" d="M 26.730469 62.851562 C 26.542969 63.148438 26.359375 63.46875 26.257812 63.828125 C 26.492188 63.449219 26.625 63.140625 26.730469 62.851562 Z M 26.730469 62.851562 " fill-opacity="1" fill-rule="nonzero"/><path fill="#000000" d="M 41.800781 41.613281 L 41.953125 41.636719 C 41.921875 41.59375 41.871094 41.589844 41.800781 41.613281 Z M 41.800781 41.613281 " fill-opacity="1" fill-rule="nonzero"/><g clip-path="url(#d3aaa306dc)"><path fill="#000000" d="M 174.507812 91.894531 C 174.171875 90.984375 173.789062 89.910156 173.53125 88.875 C 173.277344 87.835938 173.226562 86.820312 173.679688 85.980469 L 172.074219 86.28125 C 172.066406 86.171875 172.054688 86.058594 172.042969 85.949219 C 171.90625 84.027344 171.816406 82.808594 171.828125 81.984375 C 171.8125 81.121094 171.863281 80.695312 171.945312 80.308594 C 172.019531 79.921875 172.105469 79.582031 172.121094 78.878906 C 172.128906 78.53125 172.117188 78.089844 172.074219 77.511719 C 172.011719 76.9375 171.914062 76.222656 171.757812 75.320312 C 171.757812 75.320312 171.152344 74.964844 170.546875 74.613281 C 170.375 74.519531 170.210938 74.425781 170.054688 74.335938 C 169.949219 73.941406 169.847656 73.546875 169.734375 73.15625 C 169.746094 73.148438 169.753906 73.136719 169.765625 73.128906 C 169.695312 72.929688 169.621094 72.734375 169.554688 72.539062 C 168.484375 68.886719 167.117188 65.359375 165.476562 61.992188 C 165.21875 61.136719 164.832031 60.269531 164.214844 59.457031 C 164.214844 59.457031 164.230469 59.511719 164.246094 59.585938 C 163.425781 58.058594 162.546875 56.5625 161.617188 55.105469 C 161.714844 55.019531 161.808594 54.921875 161.894531 54.78125 C 161.285156 53.882812 160.570312 53.09375 159.792969 52.402344 C 154.179688 44.496094 146.910156 37.851562 138.496094 32.972656 C 138.5 32.964844 138.503906 32.957031 138.507812 32.949219 C 138.503906 32.957031 138.496094 32.960938 138.492188 32.96875 C 137.820312 32.578125 137.140625 32.203125 136.457031 31.835938 C 136.707031 31.554688 136.984375 31.265625 137.265625 30.976562 C 138.707031 29.488281 140.195312 27.890625 137.277344 26.648438 C 138.394531 28.015625 137.867188 29.222656 136.882812 29.925781 C 135.886719 30.640625 134.472656 30.820312 133.558594 30.160156 C 133.570312 30.21875 133.574219 30.292969 133.570312 30.378906 C 133.167969 30.191406 132.765625 30 132.359375 29.820312 C 133.324219 29.492188 133.5 28.875 133.152344 28.25 C 132.777344 27.574219 131.816406 26.878906 130.683594 26.652344 C 131.144531 26.871094 131.523438 27.128906 131.8125 27.414062 C 132.097656 27.714844 132.296875 28.027344 132.414062 28.335938 C 132.621094 28.886719 132.546875 29.402344 132.238281 29.765625 C 131.628906 29.492188 131.011719 29.230469 130.394531 28.972656 C 130.261719 28.878906 130.128906 28.785156 129.996094 28.6875 C 130.191406 28.605469 130.410156 28.460938 130.660156 28.222656 C 131.335938 27.089844 130.1875 25.824219 128.539062 24.613281 C 127.710938 24.03125 126.773438 23.433594 125.902344 22.851562 C 125.019531 22.304688 124.210938 21.75 123.660156 21.183594 C 122.484375 21.023438 121.835938 21.230469 121.378906 21.558594 C 120.917969 21.898438 120.621094 22.425781 120.121094 23.074219 C 120 22.300781 119.394531 21.644531 118.761719 21.042969 C 118.128906 20.445312 117.480469 19.839844 117.304688 19.0625 C 116 19.335938 114.914062 19.34375 113.917969 19.183594 C 112.921875 19.011719 112.023438 18.664062 111.105469 18.390625 C 110.191406 18.101562 109.265625 17.804688 108.257812 17.730469 C 107.949219 17.714844 107.628906 17.726562 107.304688 17.753906 C 107.304688 17.761719 107.285156 17.761719 107.246094 17.761719 C 106.527344 17.824219 105.765625 17.996094 104.945312 18.355469 C 104.730469 18.066406 104.652344 17.859375 104.667969 17.703125 C 104.460938 17.710938 104.324219 17.714844 104.324219 17.714844 L 104.605469 18.035156 C 103.703125 18.566406 102.628906 18.855469 101.476562 18.976562 C 101.074219 19.019531 100.660156 19.046875 100.242188 19.066406 C 100.609375 19.171875 100.96875 19.289062 101.320312 19.433594 C 101.5625 19.539062 101.792969 19.65625 102.027344 19.765625 C 101.367188 19.828125 100.539062 19.933594 99.707031 20.03125 C 98.527344 20.15625 97.363281 20.339844 96.695312 20.449219 C 96.585938 20.261719 96.441406 20.019531 96.300781 19.773438 C 96.042969 19.347656 95.785156 18.921875 95.714844 18.800781 C 94.636719 18.648438 93.644531 18.445312 92.839844 18.238281 C 93.371094 18.460938 93.800781 18.765625 94.027344 19.117188 C 94.195312 19.371094 94.246094 19.628906 94.160156 19.878906 C 93.980469 19.886719 93.800781 19.902344 93.621094 19.910156 C 93.234375 19.9375 92.851562 19.949219 92.46875 19.96875 C 92.382812 19.886719 92.292969 19.804688 92.207031 19.71875 C 91.667969 19.226562 91.132812 18.730469 91.132812 18.730469 C 91.132812 18.730469 90.882812 18.988281 90.511719 19.378906 C 90.316406 19.574219 90.09375 19.816406 89.859375 20.078125 C 88.546875 20.125 87.246094 20.210938 85.976562 20.261719 C 84.332031 20.378906 82.746094 20.546875 81.277344 20.800781 C 80.054688 21.054688 78.921875 21.355469 77.90625 21.761719 C 78.347656 21.363281 78.953125 21.109375 79.558594 20.90625 C 80.585938 20.554688 81.550781 20.246094 81.574219 19.289062 C 81.179688 18.550781 79.113281 18.714844 78.335938 18.429688 C 78.507812 20.113281 77.480469 20.597656 76.691406 21.03125 C 75.890625 21.472656 75.375 21.867188 76.632812 23.402344 C 76.546875 23.664062 76.558594 23.878906 76.75 24.007812 C 76.257812 24.15625 75.785156 24.28125 75.324219 24.429688 C 75.078125 24.5 74.835938 24.574219 74.589844 24.648438 C 74.6875 24.679688 74.796875 24.699219 74.914062 24.707031 C 75.378906 24.746094 75.972656 24.550781 76.898438 24.078125 C 77.214844 24.179688 77.792969 24.152344 78.800781 23.921875 C 77.609375 25.097656 76.066406 25.5 74.375 25.523438 C 73.734375 25.566406 73.074219 25.546875 72.410156 25.519531 C 72.554688 25.441406 72.699219 25.363281 72.835938 25.292969 C 73.453125 25.019531 74.027344 24.824219 74.589844 24.648438 C 74.261719 24.558594 74.007812 24.367188 73.75 24.171875 C 73.074219 23.671875 72.308594 23.09375 70.050781 24.414062 C 70.050781 24.414062 70.023438 24.878906 69.992188 25.425781 C 69.777344 25.421875 69.558594 25.414062 69.355469 25.417969 C 69.355469 25.417969 69.460938 25.234375 69.625 24.960938 C 69.789062 24.679688 70.011719 24.320312 70.238281 23.96875 C 70.703125 23.253906 71.167969 22.539062 71.167969 22.539062 C 67.074219 23.945312 62.375 24.898438 57.925781 26.507812 C 53.488281 28.089844 49.308594 30.277344 46.65625 33.414062 L 48.78125 34.039062 C 48.429688 34.339844 48.070312 34.628906 47.707031 34.90625 C 47.351562 35.191406 47 35.480469 46.636719 35.753906 C 45.921875 36.308594 45.191406 36.824219 44.457031 37.316406 C 43.035156 38.347656 41.589844 39.273438 40.277344 40.207031 C 38.984375 41.164062 37.738281 42.03125 36.765625 42.972656 C 35.789062 43.910156 35.003906 44.832031 34.539062 45.777344 C 37.394531 44.910156 37.007812 45.882812 35.90625 47.226562 C 35.644531 47.574219 35.339844 47.949219 35.019531 48.324219 C 34.914062 48.375 34.800781 48.417969 34.6875 48.449219 L 34.832031 48.550781 C 33.917969 49.625 32.984375 50.707031 32.867188 51.3125 C 33.386719 50.898438 33.914062 50.4375 34.4375 49.945312 C 34.765625 49.625 35.085938 49.289062 35.40625 48.941406 L 36.042969 49.378906 C 34.652344 50.988281 33.804688 51.980469 33.179688 52.585938 C 32.582031 53.207031 32.242188 53.472656 31.914062 53.691406 C 31.589844 53.910156 31.285156 54.089844 30.78125 54.574219 C 30.527344 54.816406 30.226562 55.136719 29.847656 55.578125 C 29.488281 56.027344 29.054688 56.601562 28.523438 57.351562 C 28.523438 57.351562 28.703125 58.027344 28.882812 58.707031 C 28.976562 59.042969 29.070312 59.378906 29.140625 59.628906 C 29.21875 59.882812 29.269531 60.050781 29.269531 60.050781 C 29.417969 60.285156 29.589844 58.644531 30.019531 57.058594 C 30.417969 55.460938 31.214844 54.007812 32.257812 54.613281 C 32.179688 55.203125 32.0625 55.800781 31.917969 56.402344 C 31.785156 57.011719 31.644531 57.632812 31.476562 58.257812 C 31.3125 58.882812 31.132812 59.511719 30.949219 60.144531 C 30.765625 60.78125 30.613281 61.4375 30.449219 62.085938 C 30.285156 62.738281 30.128906 63.390625 29.984375 64.042969 C 29.851562 64.703125 29.761719 65.367188 29.683594 66.023438 C 29.605469 66.679688 29.554688 67.332031 29.539062 67.972656 C 29.53125 68.617188 29.589844 69.265625 29.675781 69.890625 C 29.675781 69.890625 28.898438 68.734375 28.167969 67.539062 C 27.738281 66.824219 27.320312 66.09375 27.050781 65.625 C 27.386719 66.554688 26.613281 67.375 25.644531 68.484375 C 25.066406 69.132812 24.398438 69.871094 23.816406 70.757812 C 23.277344 71.652344 22.832031 72.699219 22.664062 73.914062 C 22.664062 73.914062 23.234375 72.96875 23.800781 72.027344 C 24.085938 71.5625 24.359375 71.09375 24.589844 70.753906 C 24.816406 70.414062 24.96875 70.1875 24.96875 70.1875 C 25.613281 71.257812 25.84375 72.492188 25.761719 73.824219 C 25.660156 75.15625 25.382812 76.613281 25.042969 78.132812 C 24.957031 78.511719 24.867188 78.894531 24.78125 79.28125 C 24.710938 79.667969 24.636719 80.058594 24.566406 80.449219 C 24.429688 81.234375 24.3125 82.019531 24.234375 82.800781 C 24.09375 84.359375 24.207031 85.886719 24.65625 87.246094 C 24.777344 85.796875 24.914062 84.347656 26.078125 84.21875 C 26.179688 84.347656 26.257812 84.5 26.324219 84.664062 C 26.316406 85.207031 26.351562 85.3125 26.476562 85.242188 C 26.566406 85.824219 26.527344 86.511719 26.402344 87.234375 C 26.210938 88.460938 25.855469 89.785156 25.484375 90.773438 C 25.332031 90.742188 25.191406 90.695312 25.054688 90.640625 C 24.898438 89.667969 24.96875 88.710938 25.632812 87.390625 C 25.632812 87.390625 25.054688 87.488281 24.472656 87.582031 C 23.890625 87.683594 23.308594 87.789062 23.308594 87.789062 C 23.324219 88.011719 23.34375 88.230469 23.367188 88.449219 C 23.367188 88.449219 23.363281 88.445312 23.363281 88.445312 C 22.917969 87.214844 22.855469 85.660156 22.746094 84.167969 C 22.613281 81.183594 22.746094 78.441406 21.007812 78.863281 C 20.707031 80.441406 20.71875 82.007812 20.972656 83.503906 C 21.257812 85.003906 21.6875 86.425781 22.160156 87.742188 C 22.65625 89.0625 23.144531 90.277344 23.4375 91.394531 C 23.753906 92.511719 23.914062 93.535156 23.671875 94.484375 C 23.671875 94.484375 23.050781 93.730469 22.429688 92.976562 C 22.117188 92.59375 21.808594 92.207031 21.574219 91.917969 C 21.339844 91.625 21.199219 91.425781 21.199219 91.425781 C 21.199219 91.425781 21.238281 91.617188 21.320312 91.90625 C 21.398438 92.1875 21.503906 92.570312 21.609375 92.949219 C 21.824219 93.703125 22.035156 94.457031 22.035156 94.457031 L 22.1875 93.5625 C 23.1875 94.183594 23.132812 95.132812 22.980469 96.246094 C 22.839844 97.355469 22.546875 98.636719 22.953125 99.804688 C 22.953125 99.804688 22.316406 99.460938 21.675781 99.117188 C 21.039062 98.757812 20.398438 98.402344 20.398438 98.402344 C 20.398438 98.402344 20.417969 98.6875 20.445312 99.117188 C 20.480469 99.546875 20.492188 100.121094 20.566406 100.691406 C 20.691406 101.832031 20.820312 102.976562 20.820312 102.976562 L 21.402344 102.3125 C 23.378906 109.46875 24.554688 115.53125 25.503906 122.359375 C 25.503906 122.359375 25.476562 122.105469 25.433594 121.726562 C 25.390625 121.34375 25.320312 120.847656 25.289062 120.332031 C 25.222656 119.320312 25.148438 118.304688 25.148438 118.304688 C 25.722656 118.464844 26.492188 120.425781 26.859375 122.222656 C 27.460938 121.695312 27.171875 120.371094 27.03125 119.128906 C 26.894531 118.097656 26.78125 117.164062 27.136719 116.859375 C 27.453125 118.65625 27.839844 120.441406 28.304688 122.214844 C 28.328125 122.632812 28.34375 123.042969 28.351562 123.453125 C 28.371094 124.402344 28.433594 125.34375 28.546875 126.464844 C 28.609375 127.023438 28.6875 127.625 28.804688 128.28125 C 28.945312 128.929688 29.121094 129.636719 29.347656 130.417969 C 29.769531 130.46875 30.089844 129.769531 30.484375 129.070312 C 30.925781 130.246094 31.410156 131.410156 31.921875 132.5625 C 31.53125 132.835938 30.925781 132.816406 29.871094 132.207031 C 31.644531 133.808594 31.707031 134.738281 31.820312 135.546875 C 31.9375 136.34375 32.148438 136.988281 34.152344 137.824219 C 33.808594 137.53125 33.558594 136.90625 33.3125 136.285156 C 33.367188 136.105469 33.433594 135.984375 33.511719 135.894531 C 34.347656 137.535156 35.253906 139.152344 36.234375 140.734375 C 36.257812 142.078125 36.523438 143.429688 37.636719 145.183594 C 37.636719 145.183594 37.984375 145.480469 38.503906 145.929688 C 39.023438 146.375 39.75 146.933594 40.460938 147.496094 C 41.003906 147.9375 41.558594 148.359375 42.035156 148.710938 C 42.402344 149.148438 42.777344 149.582031 43.160156 150.011719 C 42.976562 150.164062 42.730469 150.203125 42.730469 150.203125 C 43.402344 150.746094 44.042969 151.316406 44.679688 151.898438 C 45.335938 152.460938 45.972656 153.039062 46.601562 153.628906 C 46.703125 153.730469 46.808594 153.820312 46.914062 153.921875 C 47.0625 154.066406 47.214844 154.210938 47.363281 154.351562 C 47.410156 154.675781 47.613281 154.992188 48.074219 155.246094 C 48.257812 155.339844 48.425781 155.414062 48.574219 155.46875 C 48.59375 155.484375 48.609375 155.5 48.628906 155.515625 C 49.203125 156.039062 49.777344 156.550781 50.332031 157.066406 C 51.578125 158.148438 52.820312 159.15625 54.039062 160.015625 C 54.480469 160.304688 54.917969 160.574219 55.351562 160.828125 C 57.109375 162.046875 58.914062 163.171875 60.753906 164.203125 C 60.753906 164.21875 60.757812 164.230469 60.753906 164.246094 C 60.910156 164.320312 61.070312 164.386719 61.226562 164.460938 C 62.007812 164.890625 62.792969 165.304688 63.585938 165.699219 C 62.945312 165.835938 62.410156 165.949219 62.410156 165.949219 C 66.296875 167.855469 70.292969 170.511719 74.578125 172.527344 C 78.832031 174.554688 83.328125 175.964844 87.417969 175.628906 L 86.355469 173.679688 C 86.816406 173.71875 87.273438 173.769531 87.726562 173.828125 C 88.179688 173.875 88.632812 173.921875 89.082031 173.984375 C 89.980469 174.105469 90.859375 174.253906 91.726562 174.425781 C 93.460938 174.703125 95.136719 175.074219 96.722656 175.347656 C 98.308594 175.582031 99.804688 175.855469 101.15625 175.875 C 102.507812 175.90625 103.710938 175.808594 104.707031 175.46875 C 102.078125 174.0625 103.035156 173.648438 104.761719 173.476562 C 106.5 173.230469 109.074219 173.234375 109.796875 172.742188 C 109.136719 172.667969 108.441406 172.621094 107.722656 172.597656 C 107.003906 172.582031 106.269531 172.609375 105.527344 172.664062 C 104.046875 172.78125 102.558594 172.882812 101.222656 173.054688 C 98.90625 173.289062 97.050781 173.476562 96.632812 173.269531 L 96.792969 173.496094 C 96.792969 173.496094 96.191406 173.558594 95.277344 173.59375 C 94.367188 173.636719 93.144531 173.699219 91.914062 173.734375 C 90.683594 173.726562 89.453125 173.722656 88.527344 173.714844 C 88.0625 173.714844 87.675781 173.703125 87.40625 173.683594 C 87.136719 173.671875 86.980469 173.660156 86.980469 173.660156 L 87.289062 172.472656 C 95.289062 173.230469 103.394531 172.566406 111.199219 170.480469 C 111.203125 170.488281 111.203125 170.496094 111.207031 170.503906 C 111.207031 170.496094 111.207031 170.488281 111.207031 170.476562 C 111.953125 170.277344 112.699219 170.0625 113.445312 169.835938 C 113.464844 170.210938 113.46875 170.613281 113.476562 171.019531 C 113.507812 173.09375 113.582031 175.277344 116.523438 174.089844 C 114.765625 173.914062 114.289062 172.6875 114.488281 171.488281 C 114.691406 170.277344 115.5625 169.148438 116.675781 168.96875 C 116.625 168.9375 116.570312 168.882812 116.511719 168.820312 C 116.929688 168.671875 117.347656 168.519531 117.761719 168.359375 C 117.3125 169.273438 117.621094 169.835938 118.3125 170.03125 C 118.886719 170.195312 119.722656 170.113281 120.519531 169.769531 C 121.449219 170.023438 121.148438 170.28125 120.472656 170.558594 C 119.742188 170.847656 118.609375 171.160156 118.21875 171.554688 C 122.167969 172.050781 120.589844 170.527344 121.578125 169.417969 C 122.28125 169.535156 123.171875 169.480469 124.136719 169.332031 C 125.136719 169.160156 126.21875 168.917969 127.246094 168.710938 C 128.089844 168.511719 128.890625 168.359375 129.59375 168.320312 C 129.320312 168.613281 129.214844 169.144531 129.324219 170.058594 C 129.324219 170.058594 130.253906 169.804688 131.183594 169.546875 C 131.652344 169.417969 132.117188 169.289062 132.464844 169.191406 C 132.816406 169.09375 133.046875 169.023438 133.046875 169.023438 C 133.546875 170.59375 133.792969 171.378906 131.410156 171.976562 C 132.179688 172.421875 133.953125 170.824219 134.96875 170.054688 L 134.070312 170.21875 C 134.394531 169.574219 135.199219 168.839844 135.851562 168.175781 C 134.195312 168.699219 132.414062 168.242188 131.132812 168.046875 C 130.851562 168.011719 130.59375 167.992188 130.363281 168.007812 C 131.035156 167.414062 131.277344 166.898438 131.359375 166.417969 C 131.441406 165.847656 131.28125 165.269531 131.175781 164.457031 C 131.804688 164.917969 132.699219 164.953125 133.570312 164.925781 C 134.441406 164.902344 135.324219 164.871094 135.996094 165.296875 C 136.730469 164.179688 137.488281 163.402344 138.308594 162.8125 C 139.132812 162.226562 140.015625 161.835938 140.859375 161.378906 C 141.707031 160.933594 142.570312 160.488281 143.335938 159.828125 C 143.5625 159.621094 143.78125 159.386719 143.992188 159.136719 C 143.988281 159.132812 144 159.117188 144.03125 159.089844 C 144.492188 158.53125 144.910156 157.871094 145.238281 157.039062 C 145.59375 157.089844 145.792969 157.183594 145.890625 157.304688 C 146.035156 157.152344 146.128906 157.050781 146.128906 157.050781 L 145.703125 157.023438 C 145.964844 156.011719 146.519531 155.042969 147.253906 154.144531 C 147.507812 153.828125 147.78125 153.511719 148.0625 153.203125 C 147.726562 153.390625 147.390625 153.5625 147.039062 153.707031 C 145.324219 154.394531 143.605469 154.792969 141.90625 154.980469 C 140.875 155.113281 139.90625 155.21875 138.996094 155.335938 C 139.804688 154.605469 140.59375 153.851562 141.375 153.074219 C 141.839844 153.402344 142.292969 153.722656 142.292969 153.722656 C 143.027344 152.882812 143.652344 152.011719 144.21875 151.117188 C 144.757812 150.246094 145.210938 149.308594 145.671875 148.375 C 147.164062 146.582031 148.554688 144.726562 149.835938 142.820312 L 150.132812 143.03125 C 150.101562 142.808594 150.539062 142.234375 151.25 141.328125 C 151.609375 140.882812 152.046875 140.363281 152.550781 139.789062 C 153.035156 139.199219 153.570312 138.539062 154.15625 137.824219 C 154.171875 137.804688 154.191406 137.777344 154.207031 137.757812 C 159.203125 132.371094 163.339844 126.167969 166.382812 119.371094 C 166.40625 119.355469 166.425781 119.339844 166.449219 119.324219 C 166.800781 119.082031 167.140625 118.824219 167.363281 118.878906 C 167.582031 118.929688 167.6875 119.304688 167.449219 120.296875 C 167.476562 120.871094 167.804688 119.398438 167.839844 117.703125 C 167.875 117.101562 167.867188 116.480469 167.816406 115.914062 C 168.015625 115.398438 168.203125 114.878906 168.390625 114.355469 C 168.726562 115.070312 169.414062 115.472656 170.714844 115.375 C 170.792969 113.464844 170.707031 111.894531 170.191406 111.296875 L 170.65625 111.644531 C 170.65625 111.644531 170.382812 110.742188 169.902344 109.527344 C 170.199219 108.4375 170.46875 107.332031 170.714844 106.21875 C 171.277344 107.226562 171.949219 107.832031 172.929688 107.316406 C 172.929688 107.316406 172.511719 106.433594 172.09375 105.550781 C 171.890625 105.113281 171.660156 104.683594 171.488281 104.359375 C 171.316406 104.039062 171.203125 103.824219 171.203125 103.824219 C 173.183594 105.027344 172.644531 100.4375 174.132812 101.292969 C 174.132812 101.292969 174.109375 101.140625 174.050781 100.878906 C 173.996094 100.617188 173.917969 100.242188 173.824219 99.796875 C 173.621094 98.898438 173.414062 97.707031 173.089844 96.53125 C 172.789062 95.414062 172.511719 94.308594 172.261719 93.453125 C 172.277344 92.882812 172.285156 92.3125 172.285156 91.742188 L 173.679688 91.359375 C 173.679688 91.359375 173.523438 91.96875 173.371094 92.574219 C 173.289062 92.871094 173.210938 93.171875 173.152344 93.398438 C 173.085938 93.621094 173.042969 93.769531 173.042969 93.769531 C 174.214844 94.316406 174.738281 94.320312 174.898438 93.9375 C 175.066406 93.5625 174.84375 92.808594 174.507812 91.894531 Z M 36.992188 63.390625 C 37.207031 62.746094 37.421875 62.125 37.574219 61.5 C 37.613281 61.359375 37.640625 61.21875 37.675781 61.082031 C 38.21875 60.714844 38.71875 60.882812 39.132812 62.152344 C 39.132812 62.152344 38.339844 62.882812 37.546875 63.613281 C 37.128906 64.039062 36.714844 64.453125 36.425781 64.75 C 36.640625 64.296875 36.835938 63.84375 36.992188 63.390625 Z M 38.089844 59.207031 C 38.195312 58.765625 38.296875 58.324219 38.40625 57.898438 C 38.492188 57.570312 38.585938 57.253906 38.683594 56.941406 C 38.847656 58 38.582031 58.691406 38.089844 59.207031 Z M 41.808594 60.140625 C 42.113281 60.109375 42.464844 60.164062 42.882812 60.339844 C 42.496094 60.78125 42.113281 61.226562 41.738281 61.675781 C 41.742188 61.402344 41.75 61.121094 41.765625 60.839844 C 41.78125 60.605469 41.792969 60.371094 41.808594 60.140625 Z M 32.398438 75.449219 C 32.507812 74.636719 32.496094 73.726562 32.449219 72.785156 C 32.417969 71.589844 32.3125 70.339844 32.265625 69.21875 C 32.261719 69.078125 32.265625 68.945312 32.269531 68.8125 C 32.433594 68.441406 32.613281 68.121094 32.800781 67.890625 C 32.621094 67.945312 32.453125 68.027344 32.289062 68.117188 C 32.320312 67.46875 32.394531 66.894531 32.542969 66.472656 C 32.664062 66.84375 33.195312 66.089844 33.84375 65.257812 C 34.488281 65.484375 35.144531 64.558594 35.808594 63.492188 C 36.082031 63.539062 36.230469 63.96875 36.164062 65.011719 C 36.078125 65.101562 36.023438 65.15625 36.023438 65.15625 C 36.070312 65.152344 36.109375 65.148438 36.15625 65.148438 C 36.152344 65.207031 36.148438 65.261719 36.140625 65.324219 C 36.175781 65.261719 36.199219 65.203125 36.230469 65.144531 C 37.34375 65.078125 38.0625 64.683594 38.613281 64.148438 C 39.203125 63.582031 39.574219 62.835938 39.917969 62.125 C 40.226562 61.492188 40.535156 60.90625 40.949219 60.535156 C 40.933594 60.582031 40.917969 60.621094 40.902344 60.667969 C 40.714844 61.21875 40.550781 61.816406 40.371094 62.40625 C 40.210938 62.945312 40.050781 63.476562 39.902344 63.984375 C 39.621094 64.355469 39.339844 64.722656 39.070312 65.097656 C 38.988281 65.125 38.917969 65.140625 38.867188 65.144531 C 38.863281 65.222656 38.875 65.289062 38.886719 65.351562 C 36.496094 68.660156 34.441406 72.136719 32.722656 75.734375 C 32.605469 75.648438 32.5 75.550781 32.398438 75.449219 Z M 170.90625 76.582031 C 171.695312 77.902344 172.152344 79.378906 171.257812 79.820312 C 171.015625 78.457031 170.734375 77.109375 170.414062 75.773438 C 170.578125 76.03125 170.746094 76.300781 170.90625 76.582031 Z M 129.949219 28.792969 C 129.90625 28.773438 129.863281 28.757812 129.820312 28.738281 C 129.839844 28.734375 129.855469 28.734375 129.875 28.726562 C 129.898438 28.75 129.921875 28.769531 129.949219 28.792969 Z M 128.265625 27.394531 C 128.183594 27.332031 128.105469 27.273438 128.023438 27.210938 C 128.023438 27.210938 128.125 27.289062 128.285156 27.417969 C 128.335938 27.496094 128.390625 27.578125 128.445312 27.660156 C 128.617188 27.925781 128.789062 28.199219 128.980469 28.410156 C 128.1875 28.101562 127.386719 27.808594 126.578125 27.53125 C 127.347656 26.421875 127.832031 26.773438 128.265625 27.394531 Z M 96.453125 20.492188 C 96.246094 20.527344 96.128906 20.546875 96.128906 20.546875 C 96.039062 20.441406 96.019531 20.320312 96.023438 20.203125 C 96.175781 20.304688 96.324219 20.40625 96.453125 20.492188 Z M 94.960938 19.511719 C 94.960938 19.511719 95.144531 19.628906 95.398438 19.792969 C 95.246094 19.808594 95.09375 19.824219 94.941406 19.835938 C 94.949219 19.730469 94.957031 19.625 94.960938 19.511719 Z M 58.703125 28.757812 C 58.550781 28.882812 58.40625 29.007812 58.257812 29.128906 C 58.222656 29.09375 58.199219 29.0625 58.160156 29.023438 C 58.34375 28.917969 58.523438 28.832031 58.703125 28.757812 Z M 54.398438 32.0625 C 54.832031 31.925781 55.265625 31.808594 55.683594 31.699219 C 55.296875 32.203125 55.050781 32.652344 55.023438 33.015625 L 54.941406 32.441406 C 54.941406 32.441406 54.46875 33.320312 53.933594 34.578125 C 53.390625 35.828125 52.878906 37.539062 52.648438 39.078125 C 53.003906 38.074219 53.71875 37.144531 54.519531 36.285156 C 55.355469 35.457031 56.273438 34.699219 57.011719 33.972656 C 58.1875 32.898438 58.953125 31.878906 58.347656 30.730469 C 58.808594 30.394531 58.921875 29.976562 58.503906 29.414062 C 59.203125 29.199219 59.753906 28.898438 60.238281 28.488281 C 61.007812 28.554688 61.628906 28.925781 62.039062 29.40625 C 61.773438 29.628906 61.488281 29.882812 61.203125 30.152344 C 59.945312 31.285156 58.769531 32.777344 59.046875 33.390625 C 59.621094 33.277344 60.152344 32.300781 60.839844 31.628906 C 61.511719 30.9375 62.261719 30.472656 63.09375 31.296875 C 64.910156 30.269531 64.199219 30.160156 63.363281 29.996094 C 63.425781 29.957031 63.480469 29.917969 63.546875 29.875 C 64.144531 29.492188 64.941406 28.984375 65.738281 28.476562 C 66.539062 27.957031 67.363281 27.488281 67.984375 27.136719 C 68.609375 26.785156 69.027344 26.546875 69.027344 26.546875 C 70.117188 27.246094 69.351562 30.054688 68.503906 30.144531 C 67.820312 30.34375 67.085938 30.75 66.316406 31.203125 C 65.550781 31.660156 64.738281 32.128906 63.925781 32.582031 C 62.304688 33.5 60.597656 34.109375 58.820312 33.625 C 58.082031 34.796875 58.875 35.148438 59.285156 35.566406 C 59.707031 35.996094 59.734375 36.425781 57.667969 37.855469 C 54.695312 38.320312 51.902344 39.660156 49.355469 41.324219 C 49.449219 40.367188 50.003906 39.101562 50.484375 37.867188 C 51.210938 36.074219 51.816406 34.375 50.277344 33.890625 C 50.277344 33.890625 49.949219 34.8125 49.621094 35.734375 C 49.558594 35.910156 49.5 36.085938 49.441406 36.261719 C 48.671875 34.082031 51.617188 32.832031 54.398438 32.0625 Z M 47.21875 35.550781 C 47.546875 35.222656 47.828125 34.957031 48.035156 34.777344 C 48.234375 34.597656 48.351562 34.492188 48.351562 34.492188 L 49.421875 36.324219 C 49.339844 36.574219 49.269531 36.808594 49.210938 37.003906 C 49.105469 37.351562 49.035156 37.585938 49.035156 37.585938 C 48.507812 35.4375 45.894531 38.621094 45.261719 37.492188 C 45.980469 36.777344 46.675781 36.089844 47.21875 35.550781 Z M 41.527344 41.566406 C 41.527344 41.566406 41.910156 41.089844 42.53125 40.421875 C 43.101562 39.796875 43.847656 38.96875 44.625 38.136719 C 44.535156 38.273438 44.445312 38.417969 44.339844 38.578125 C 43.851562 39.355469 43.15625 40.34375 42.558594 41.40625 C 41.949219 42.457031 41.332031 43.492188 40.902344 44.289062 C 40.484375 45.089844 40.207031 45.625 40.207031 45.625 L 38.84375 44.847656 C 39.074219 44.566406 39.292969 44.296875 39.503906 44.039062 C 39.523438 44.027344 39.542969 44.015625 39.566406 44.003906 C 39.832031 43.847656 40.097656 43.691406 40.300781 43.574219 C 40.503906 43.464844 40.640625 43.390625 40.640625 43.390625 C 40.574219 43.210938 40.511719 43.054688 40.453125 42.910156 C 41.082031 42.179688 41.558594 41.695312 41.800781 41.609375 Z M 28.449219 78.324219 C 29.671875 74.597656 29.355469 79.664062 30.792969 78.269531 C 31.132812 78.097656 31.398438 77.867188 31.609375 77.59375 C 31.628906 77.761719 31.636719 77.9375 31.636719 78.117188 C 31.125 79.304688 30.652344 80.503906 30.210938 81.714844 C 29.753906 81.917969 29.351562 81.75 29.042969 81.316406 C 28.828125 81.015625 28.65625 80.585938 28.542969 80.070312 C 28.433594 79.554688 28.414062 78.960938 28.449219 78.324219 Z M 75.242188 170.210938 C 75.558594 170.300781 75.871094 170.390625 76.1875 170.476562 C 76.1875 170.515625 76.183594 170.542969 76.183594 170.582031 C 75.828125 170.488281 75.515625 170.363281 75.242188 170.210938 Z M 82.363281 171.824219 C 83.835938 172.078125 85.316406 172.273438 86.804688 172.425781 C 85.765625 173.128906 84.0625 172.644531 82.363281 171.824219 Z M 120.410156 169.621094 C 120.214844 169.65625 120.023438 169.679688 119.84375 169.679688 C 119.433594 169.671875 119.070312 169.589844 118.769531 169.453125 C 118.234375 169.210938 117.925781 168.792969 117.886719 168.316406 C 118.703125 168.003906 119.511719 167.675781 120.320312 167.332031 C 120.183594 167.535156 120.101562 167.835938 120.089844 168.289062 C 120.210938 168.769531 120.523438 169.082031 120.976562 169.265625 C 120.773438 169.351562 120.582031 169.46875 120.410156 169.621094 Z M 122.054688 167.121094 C 121.742188 167.050781 121.429688 166.980469 121.144531 166.96875 C 121.921875 166.625 122.695312 166.265625 123.460938 165.886719 C 123.734375 167.398438 122.933594 167.3125 122.054688 167.121094 Z M 122.054688 167.121094 " fill-opacity="1" fill-rule="nonzero"/></g><path fill="#000000" d="M 111.207031 170.507812 C 111.207031 170.800781 111.207031 171.003906 111.207031 171.003906 C 111.265625 170.816406 111.253906 170.65625 111.207031 170.507812 Z M 111.207031 170.507812 " fill-opacity="1" fill-rule="nonzero"/><g clip-path="url(#0261c6e96f)"><g clip-path="url(#6f222835fd)"><path fill="url(#f9dc2b6c06)" d="M 57.707031 57.808594 L 57.707031 134.308594 L 133.855469 134.308594 L 133.855469 57.808594 Z M 57.707031 57.808594 " fill-rule="nonzero"/></g></g><g clip-path="url(#68b2a04a7a)"><g clip-path="url(#8d8bb4a29e)"><path fill="url(#1219f02994)" d="M 114.730469 96.046875 L 114.730469 119.320312 L 134 119.320312 L 134 96.046875 Z M 114.730469 96.046875 " fill-rule="nonzero"/></g></g></svg>